<?xml version="1.0" encoding="utf-8"?>
<!-- Generator: Adobe Illustrator 22.1.0, SVG Export Plug-In . SVG Version: 6.00 Build 0)  -->
<svg version="1.1" id="Layer_1" xmlns="http://www.w3.org/2000/svg" xmlns:xlink="http://www.w3.org/1999/xlink" x="0px" y="0px"
	 viewBox="0 0 310 127" style="enable-background:new 0 0 310 127;" xml:space="preserve">
<style type="text/css">
	.st0{fill:#ED3435;}
	.st1{fill:#294099;}
	.st2{fill:#888D92;}
</style>
<title>logo</title>
<g>
	<polyline class="st0" points="256.5,55.4 285.8,34.9 274.4,68.5 271.2,78.4 267.1,89.6 255.4,123.2 	"/>
	<polyline class="st1" points="254.5,42 221.1,30.4 254.9,19.7 264.7,16.5 276.1,13.2 310,2.8 	"/>
	<path class="st2" d="M17.3,51.4l-0.7,3.9c-0.1,0.3-0.4,0.6-0.7,0.6h-4.5l-3,16.8c-0.1,0.3-0.4,0.6-0.7,0.6H2.8
		c-0.3,0-0.5-0.2-0.5-0.5v-0.1l3-16.8H0.7c-0.3,0-0.5-0.2-0.5-0.5v-0.1l0.7-3.9c0.1-0.3,0.4-0.6,0.7-0.6h15.2
		C17.1,50.8,17.3,51.1,17.3,51.4L17.3,51.4z"/>
	<path class="st2" d="M38.2,51.4l-2.3,13.3c-1.2,7-4.7,8.8-10.7,8.8c-3.5,0-7.7-2-7.7-7.2c0-0.6,0.1-1.2,0.2-1.9l2.3-13
		c0.1-0.3,0.4-0.6,0.8-0.6h4.9c0.3,0,0.5,0.2,0.5,0.5v0.1l-2.3,13.3c-0.1,0.5-0.1,1-0.1,1.4c0,1.6,0.8,2.2,2.5,2.2
		c2.1,0,3.2-0.9,3.7-3.6l2.3-13.3c0.1-0.3,0.4-0.6,0.7-0.6h4.9C38,50.8,38.2,51.1,38.2,51.4L38.2,51.4z M29,45.6l-0.5,3
		c-0.1,0.3-0.5,0.6-0.8,0.6h-3.5c-0.3,0-0.6-0.2-0.6-0.5v-0.1l0.5-3c0.1-0.3,0.5-0.6,0.8-0.6h3.5C28.8,45,29,45.2,29,45.6L29,45.6z
		 M36.1,45.6l-0.5,3c-0.1,0.3-0.5,0.6-0.8,0.6h-3.5c-0.3,0-0.5-0.2-0.5-0.5v-0.1l0.5-3c0.1-0.3,0.5-0.6,0.8-0.6h3.5
		C35.8,45,36.1,45.2,36.1,45.6L36.1,45.6z"/>
	<path class="st2" d="M53.8,64.2l2.9,8.2c0,0.1,0,0.2,0,0.2c0,0.3-0.2,0.6-0.6,0.6h-5.3c-0.3,0-0.4-0.3-0.5-0.6l-2.5-7.3
		c-0.7,0-1.3,0-2-0.1l-1.3,7.4c-0.1,0.3-0.4,0.6-0.7,0.6h-4.9c-0.3,0-0.5-0.2-0.5-0.5v-0.1l3.5-19.7c0.2-1.4,0.8-1.8,2.1-2
		c1.2-0.2,3.7-0.4,6.3-0.4c4.8,0,8.4,1.7,8.4,5.9C58.7,59.9,57.1,62.9,53.8,64.2 M49.8,55.7c-0.8,0-1.8,0-2.4,0.1l-0.8,4.8
		c0.3,0,0.7,0,1.1,0h1.1c2.4,0,3.7-0.9,3.7-3.3C52.5,56.2,51.7,55.7,49.8,55.7"/>
	<path class="st2" d="M82.2,51.5L73.7,62l4.7,10.6c0,0.1,0.1,0.2,0.1,0.2c0,0.2-0.2,0.4-0.5,0.4H72c-0.4,0-0.5-0.2-0.5-0.5l-3.8-9.8
		l-1.7,9.8c-0.1,0.3-0.4,0.6-0.7,0.6h-4.9c-0.3,0-0.5-0.2-0.5-0.5v-0.1l3.7-21.2c0.1-0.3,0.4-0.6,0.7-0.6h4.9c0.3,0,0.5,0.2,0.5,0.5
		v0.1L68,60.8l7.3-9.5c0.2-0.3,0.4-0.5,0.8-0.5h6c0.2,0,0.4,0.1,0.4,0.3C82.4,51.2,82.3,51.4,82.2,51.5"/>
	<path class="st2" d="M103.7,51.4l-3.7,21.2c-0.1,0.3-0.4,0.6-0.7,0.6h-4.9c-0.3,0-0.5-0.2-0.5-0.5v-0.1l1.4-8.2h-6.3l-1.4,8.2
		c-0.1,0.3-0.4,0.6-0.7,0.6h-4.9c-0.3,0-0.5-0.2-0.5-0.5v-0.1l3.7-21.2c0.1-0.3,0.4-0.6,0.7-0.6h4.9c0.3,0,0.5,0.2,0.5,0.5v0.1
		l-1.4,7.7h6.3l1.4-7.7c0.1-0.3,0.4-0.6,0.7-0.6h4.9C103.5,50.8,103.7,51,103.7,51.4L103.7,51.4z"/>
	<path class="st2" d="M121.6,73.2h-5.1c-0.3,0-0.5-0.3-0.5-0.6l-0.1-4.2h-5.4l-1.6,4.2c-0.1,0.3-0.4,0.6-0.7,0.6h-5.4
		c-0.3,0-0.4-0.2-0.4-0.4c0-0.1,0-0.2,0.1-0.2l7.3-18.4c1.2-3,3.6-3.6,6.4-3.6c2.9,0,5,0.6,5.2,3.6l0.8,18.4v0
		C122.2,72.9,122,73.2,121.6,73.2 M115.7,56c0-0.3,0-0.4-0.3-0.4c-0.3,0-0.3,0.2-0.4,0.4l-2.8,7.6h3.6L115.7,56z"/>
	<path class="st2" d="M146.3,51.4L139,69.9c-1.2,3-3.6,3.6-6.5,3.6c-2.9,0-5-0.6-5.1-3.6l-0.8-18.4v0c0-0.3,0.3-0.6,0.6-0.6h5.1
		c0.3,0,0.5,0.3,0.5,0.6l0.2,16.6c0,0.3,0,0.4,0.3,0.4c0.2,0,0.3-0.2,0.4-0.4l6.1-16.6c0.1-0.3,0.4-0.6,0.7-0.6h5.4
		c0.2,0,0.4,0.1,0.4,0.3C146.3,51.3,146.3,51.4,146.3,51.4"/>
	<path class="st2" d="M162.4,73.2h-5.1c-0.3,0-0.5-0.3-0.5-0.6l-0.1-4.2h-5.4l-1.6,4.2c-0.1,0.3-0.4,0.6-0.7,0.6h-5.3
		c-0.3,0-0.4-0.2-0.4-0.4c0-0.1,0-0.2,0.1-0.2l7.3-18.4c1.2-3,3.6-3.6,6.4-3.6c2.9,0,5,0.6,5.2,3.6l0.8,18.4v0
		C162.9,72.9,162.7,73.2,162.4,73.2 M156.5,56c0-0.3,0-0.4-0.3-0.4c-0.3,0-0.3,0.2-0.4,0.4l-2.8,7.6h3.6L156.5,56z"/>
	<path class="st2" d="M182.8,51.8l-0.7,3.9c-0.1,0.4-0.3,0.6-0.6,0.6h-0.1c-1.2-0.1-2.5-0.3-4.2-0.3c-1.6,0-3.2,0.6-3.9,4.5
		l-0.6,3.1c-0.1,0.7-0.2,1.3-0.2,1.8c0,2.3,1.2,2.7,2.5,2.7c1.7,0,3-0.2,4.3-0.3h0.1c0.3,0,0.5,0.1,0.5,0.4v0.2l-0.7,3.9
		c-0.1,0.4-0.2,0.5-0.8,0.7c-0.8,0.3-2.4,0.5-4.3,0.5c-4.5,0-7.9-2.5-7.9-7.5c0-0.8,0.1-1.6,0.2-2.4l0.6-3.1c1.4-7.6,5.3-9.9,11-9.9
		c1.9,0,3.4,0.3,4.2,0.6c0.3,0.1,0.6,0.2,0.6,0.5V51.8z"/>
	<path class="st2" d="M192.2,51.4l-3.7,21.2c-0.1,0.3-0.3,0.6-0.7,0.6h-5c-0.4,0-0.5-0.3-0.5-0.6l3.7-21.2c0.1-0.3,0.4-0.6,0.7-0.6
		h5C192,50.8,192.2,51,192.2,51.4"/>
	<path class="st2" d="M206.1,68.8l-0.7,3.7c-0.1,0.4-0.3,0.5-0.7,0.6c-1.1,0.2-3.2,0.4-4.8,0.4c-3.4,0-6.8-1.1-6.8-5.2
		c0-0.5,0.1-1,0.1-1.6l2.7-15.3c0.1-0.3,0.4-0.6,0.8-0.6h4.9c0.3,0,0.5,0.2,0.5,0.5v0.1l-2.7,15.3c0,0.2-0.1,0.4-0.1,0.6
		c0,0.7,0.4,0.9,1.2,0.9h4.9C205.9,68.2,206.1,68.5,206.1,68.8L206.1,68.8z"/>
	<path class="st2" d="M218.1,51.4l-3.7,21.2c-0.1,0.3-0.3,0.6-0.7,0.6h-5c-0.4,0-0.5-0.3-0.5-0.6l3.7-21.2c0.1-0.3,0.4-0.6,0.7-0.6
		h5C217.9,50.8,218.1,51,218.1,51.4"/>
	<path class="st2" d="M240.7,51.5L232.2,62l4.7,10.6c0,0.1,0.1,0.2,0.1,0.2c0,0.2-0.2,0.4-0.5,0.4h-5.9c-0.4,0-0.5-0.2-0.5-0.5
		l-3.8-9.8l-1.7,9.8c-0.1,0.3-0.4,0.6-0.7,0.6h-4.9c-0.3,0-0.5-0.2-0.5-0.5v-0.1l3.7-21.2c0.1-0.3,0.4-0.6,0.7-0.6h4.9
		c0.3,0,0.5,0.2,0.5,0.5v0.1l-1.7,9.4l7.3-9.5c0.2-0.3,0.4-0.5,0.8-0.5h6c0.2,0,0.4,0.1,0.4,0.3C240.9,51.2,240.8,51.4,240.7,51.5"
		/>
	<path class="st2" d="M65.4,83.9c0.4,0,0.5,0.2,0.5,0.6L63.5,98c-1.2,6.7-4.7,8.5-9.7,8.5c-4.3,0-7.1-2-7.1-6.3c0-0.7,0-1.4,0.2-2.2
		l2.4-13.5c0.1-0.3,0.4-0.6,0.7-0.6h3c0.4,0,0.6,0.2,0.5,0.6L51,98c-0.2,0.9-0.2,1.6-0.2,2.3c0,2,0.9,2.8,3.5,2.8
		c3.3,0,4.3-1.5,5-5.1l2.4-13.5c0.1-0.3,0.2-0.6,0.7-0.6H65.4z"/>
	<path class="st2" d="M70.2,87.5c-0.4,0-0.5-0.2-0.5-0.5l0.5-2.5c0.1-0.3,0.3-0.6,0.7-0.6H83c1,0,1.5,0.4,1.4,1.1l-0.3,1.7
		c-0.1,0.4-0.3,0.9-0.6,1.2l-11.8,14.1c-0.1,0.1-0.2,0.3-0.2,0.4c0,0.1,0.1,0.2,0.2,0.2h9.2c0.3,0,0.5,0.2,0.5,0.5l-0.4,2.5
		c-0.1,0.4-0.2,0.6-0.7,0.6H67c-1,0-1.4-0.3-1.3-1.1l0.3-1.7c0.1-0.4,0.2-0.7,0.6-1.1l12-14.3c0.1-0.1,0.1-0.2,0.1-0.3
		c0-0.1-0.1-0.2-0.3-0.2H70.2z"/>
	<path class="st2" d="M100.6,106.3h-3.1c-0.4,0-0.5-0.2-0.5-0.5l-0.4-5.7h-6.9l-2.4,5.7c-0.1,0.3-0.3,0.5-0.7,0.5h-3.3
		c-0.3,0-0.5-0.2-0.5-0.4c0-0.1,0-0.2,0.1-0.3l8.3-18.9c1.2-2.8,3.1-3.1,4.7-3.1c1.5,0,3.4,0.5,3.7,3.1l1.6,18.9v0.1
		C101.2,106,101.1,106.3,100.6,106.3 M95.9,87.7c0-0.4-0.1-0.5-0.4-0.5c-0.3,0-0.4,0.1-0.6,0.5l-3.7,8.9h5.3L95.9,87.7z"/>
	<path class="st2" d="M121.1,84.6L114.6,95c-0.8,1.3-1.5,2-2.2,2.3l-1.5,8.4c-0.1,0.3-0.4,0.6-0.7,0.6h-3c-0.3,0-0.5-0.2-0.5-0.6
		l1.5-8.4c-0.6-0.3-1.1-0.9-1.5-2.3L104,84.6c-0.1-0.4,0.1-0.7,0.5-0.7h3.2c0.3,0,0.5,0.1,0.5,0.5l2.1,9c0.1,0.5,0.2,0.5,0.4,0.5
		c0.3,0,0.4,0,0.7-0.5l5.2-9c0.2-0.4,0.5-0.5,0.8-0.5h3.4c0.3,0,0.4,0.2,0.4,0.4C121.1,84.4,121.1,84.5,121.1,84.6"/>
	<path class="st2" d="M136.3,84.2c0.3,0.1,0.5,0.2,0.5,0.6l-0.4,2.2c-0.1,0.4-0.1,0.6-0.7,0.5c-2-0.2-3.7-0.3-5.9-0.3
		c-1.7,0-3.6,0.5-3.6,2.3c0,1.1,0.5,1.6,2,2.6l3.3,2c2.4,1.5,3.2,3.2,3.2,5.4c0,5-4.2,7-9.1,7c-2.3,0-3.9-0.2-5.3-0.5
		c-0.3-0.1-0.5-0.2-0.5-0.6l0.4-2.2c0.1-0.3,0.2-0.6,0.7-0.6c1.2,0.2,4.2,0.3,5.3,0.3c2.1,0,4-0.7,4-2.8c0-1.1-0.5-1.8-2.1-2.9
		l-3.6-2.4c-2.1-1.4-2.7-3.4-2.7-5.1c0-4.8,4.3-6.1,8.6-6.1C132.5,83.7,135.3,84,136.3,84.2"/>
	<path class="st2" d="M152.9,106.3h-3.1c-0.4,0-0.5-0.2-0.5-0.5L149,100h-7l-2.4,5.7c-0.1,0.3-0.3,0.5-0.7,0.5h-3.3
		c-0.3,0-0.5-0.2-0.5-0.4c0-0.1,0-0.2,0.1-0.3l8.3-18.9c1.2-2.8,3.1-3.1,4.7-3.1c1.5,0,3.4,0.5,3.7,3.1l1.6,18.9v0.1
		C153.5,106,153.4,106.3,152.9,106.3 M148.2,87.7c0-0.4-0.1-0.5-0.4-0.5c-0.3,0-0.4,0.1-0.6,0.5l-3.7,8.9h5.3L148.2,87.7z"/>
	<path class="st2" d="M176.7,83.9c0.3,0,0.6,0.1,0.5,0.6l-3.7,20.6c-0.1,0.7-0.8,1.2-1.4,1.2h-2.8c-0.7,0-1.4,0-1.7-1.1l-4.3-14.7
		c-0.1-0.2-0.1-0.2-0.2-0.2c-0.1,0-0.2,0.1-0.2,0.2l-2.7,15.1c-0.1,0.3-0.1,0.6-0.7,0.6h-2.6c-0.3,0-0.6-0.2-0.5-0.6l3.6-20.6
		c0.1-0.7,0.8-1.2,1.4-1.2h3c0.6,0,0.9,0.2,1.1,1l4.5,15.5c0,0.2,0.1,0.2,0.2,0.2c0.1,0,0.2-0.1,0.2-0.3l2.8-15.8
		c0.1-0.3,0.2-0.6,0.7-0.6H176.7z"/>
	<path class="st2" d="M193.9,106.3h-3.1c-0.4,0-0.5-0.2-0.5-0.5L190,100h-6.9l-2.4,5.7c-0.1,0.3-0.3,0.5-0.7,0.5h-3.3
		c-0.3,0-0.5-0.2-0.5-0.4c0-0.1,0-0.2,0.1-0.3l8.3-18.9c1.2-2.8,3.1-3.1,4.7-3.1c1.5,0,3.4,0.5,3.7,3.1l1.6,18.9v0.1
		C194.6,106,194.5,106.3,193.9,106.3 M189.2,87.7c0-0.4-0.1-0.5-0.4-0.5c-0.3,0-0.4,0.1-0.6,0.5l-3.7,8.9h5.3L189.2,87.7z"/>
	<path class="st2" d="M214.4,84.6L208,95c-0.8,1.3-1.5,2-2.2,2.3l-1.5,8.4c-0.1,0.3-0.4,0.6-0.7,0.6h-3c-0.3,0-0.5-0.2-0.5-0.6
		l1.5-8.4c-0.6-0.3-1.1-0.9-1.5-2.3l-2.7-10.4c-0.1-0.4,0.1-0.7,0.5-0.7h3.2c0.3,0,0.5,0.1,0.5,0.5l2.1,9c0.1,0.5,0.2,0.5,0.4,0.5
		c0.3,0,0.4,0,0.7-0.5l5.2-9c0.2-0.4,0.5-0.5,0.8-0.5h3.4c0.3,0,0.4,0.2,0.4,0.4C214.5,84.4,214.5,84.5,214.4,84.6"/>
	<path class="st2" d="M221.2,83.9c0.4,0,0.6,0.2,0.5,0.6l-3.7,21.2c-0.1,0.3-0.1,0.6-0.7,0.6h-3c-0.5,0-0.5-0.3-0.5-0.6l3.7-21.2
		c0.1-0.3,0.2-0.6,0.7-0.6H221.2z M222.6,78.3l-0.5,2.9c-0.1,0.3-0.4,0.6-0.7,0.6h-2.7c-0.3,0-0.5-0.2-0.5-0.5v-0.1l0.5-2.9
		c0.1-0.3,0.4-0.6,0.7-0.6h2.7C222.4,77.7,222.6,77.9,222.6,78.3L222.6,78.3z"/>
	<path class="st2" d="M229.9,83.9c0.4,0,0.6,0.2,0.5,0.6l-3.7,21.2c-0.1,0.3-0.1,0.6-0.7,0.6h-3c-0.5,0-0.5-0.3-0.5-0.6l3.7-21.2
		c0.1-0.3,0.2-0.6,0.7-0.6H229.9z M231.4,78.3l-0.5,2.9c-0.1,0.3-0.4,0.6-0.7,0.6h-2.7c-0.3,0-0.5-0.2-0.5-0.5v-0.1l0.5-2.9
		c0.1-0.3,0.4-0.6,0.7-0.6h2.7C231.2,77.7,231.4,77.9,231.4,78.3L231.4,78.3z"/>
</g>
</svg>
